<?xml version="1.0" encoding="UTF-8"?>
<svg id="Layer_1" data-name="Layer 1" xmlns="http://www.w3.org/2000/svg" viewBox="0 0 1042.74 230.12">
  <defs>
    <style>
      .cls-1 {
        fill: #000;
        stroke-width: 0px;
      }
    </style>
  </defs>
  <g>
    <path class="cls-1" d="M208.37,128.6V57.87h36.81v66.16c0,14.91,7.46,25.02,22.13,25.02s22.13-10.1,22.13-25.02V57.87h37.05v119.32h-37.05v-14.91c-8.42,11.79-20.93,17.8-35.36,17.8-29.83,0-45.71-21.65-45.71-51.48Z"/>
    <path class="cls-1" d="M339.64,8.8h37.05v168.4h-37.05V8.8Z"/>
    <path class="cls-1" d="M397.13,135.09v-46.67h-12.51v-30.55h12.51v-29.59h37.05v29.59h24.3v30.55h-24.3v47.15c0,7.94,3.13,10.1,11.07,10.1h13.23v31.51h-18.76c-28.15,0-42.58-13.47-42.58-42.1Z"/>
    <path class="cls-1" d="M466.65,24.43c0-12.51,10.34-22.85,22.85-22.85s22.85,10.34,22.85,22.85-9.86,22.85-22.85,22.85-22.85-10.34-22.85-22.85ZM470.98,57.87h37.05v119.32h-37.05V57.87Z"/>
    <path class="cls-1" d="M512.12,57.87h36.57l16.84,85.4,20.21-85.4h38.73l20.21,84.92,16.6-84.92h34.64l-32.48,119.32h-40.42l-18.76-77.46-19.48,77.46h-40.17l-32.48-119.32Z"/>
    <path class="cls-1" d="M691.81,144c0-26.46,23.34-37.53,51.24-37.53h26.94c0-12.51-6.49-21.41-19.48-21.41-9.14,0-17.32,3.37-19.25,12.75h-35.84c1.93-26.22,27.18-42.82,55.81-42.82,33.2,0,55.81,19,55.81,51.24v30.55c0,7.22.96,11.07,9.86,11.07v29.35c-23.1,0-33.44-3.13-41.86-18.52-10.58,14.19-24.78,21.41-44.27,21.41-20.93,0-38.97-12.99-38.97-36.09ZM769.76,127.64v-1.44h-22.85c-9.86,0-17.8,3.61-17.8,12.99s7.22,12.51,14.67,12.51c13.95,0,25.98-9.86,25.98-24.06Z"/>
    <path class="cls-1" d="M854.67,173.1l-48.59-115.23h40.9l27.66,74.58,27.42-74.58h39.45l-73.13,172.25h-39.45l25.74-57.01Z"/>
  </g>
  <g>
    <rect class="cls-1" x="964.93" y="18.56" width="15.65" height="72.17"/>
    <polygon class="cls-1" points="986.17 18.56 986.17 32.33 1006.33 32.33 1006.33 90.73 1021.98 90.73 1021.98 32.33 1042.24 32.33 1042.24 18.56 986.17 18.56"/>
  </g>
  <path class="cls-1" d="M194.4,141.22v-2.51c0-.98-.01-1.92-.01-3.03v-46.82h0v-5.87c0-22.93-18.65-41.58-41.58-41.58s-41.58,18.65-41.58,41.58v52.61c0,3.18-2.58,5.76-5.76,5.76h-5.47c-3.18,0-5.76-2.58-5.76-5.76V42.81C94.24,19.89,75.59,1.23,52.66,1.23h-1.45C28.28,1.23,9.63,19.89,9.63,42.81v54.19h0v38.07c0,1.11-.01,2.05-.01,3.03v2.51c-.67,3.1-2.86,6.96-9.62,6.44v29.35s4.08.49,9.62-.14v.09c2.08-.24,4.1-.65,6.05-1.19,4.44-1.12,9.16-3.08,13.24-6.48,10.13-7.56,16.54-19.81,16.54-33.62v-46.39h0v-45.86c0-3.18,2.58-5.76,5.76-5.76h1.45c3.18,0,5.76,2.58,5.76,5.76v92.78c0,22.93,18.65,41.58,41.58,41.58h5.47c22.93,0,41.58-18.65,41.58-41.58v-52.61c0-3.18,2.58-5.76,5.76-5.76s5.76,2.58,5.76,5.76v6.22h0v46.48c0,13.81,6.4,26.05,16.54,33.62,4.08,3.4,8.81,5.36,13.24,6.48,1.96.54,3.98.94,6.05,1.19v-.09c5.54.63,9.62.14,9.62.14v-29.35c-6.77.52-8.95-3.34-9.62-6.44Z"/>
</svg>